<?xml version="1.0" standalone="no" ?>
<!DOCTYPE svg PUBLIC "-//W3C//DTD SVG 1.1//EN" "http://www.w3.org/Graphics/SVG/1.1/DTD/svg11.dtd">
<svg width="284" height="30" viewBox="0 0 284 30" version="1.1" xmlns="http://www.w3.org/2000/svg">
	<desc>140922466190</desc>
	<g id="bars" fill="black" stroke="none">
		<rect x="0" y="0" width="2" height="30" />
		<rect x="4" y="0" width="4" height="30" />
		<rect x="12" y="0" width="2" height="30" />
		<rect x="18" y="0" width="2" height="30" />
		<rect x="22" y="0" width="2" height="30" />
		<rect x="26" y="0" width="2" height="30" />
		<rect x="30" y="0" width="4" height="30" />
		<rect x="38" y="0" width="2" height="30" />
		<rect x="42" y="0" width="2" height="30" />
		<rect x="46" y="0" width="4" height="30" />
		<rect x="52" y="0" width="2" height="30" />
		<rect x="58" y="0" width="2" height="30" />
		<rect x="62" y="0" width="2" height="30" />
		<rect x="66" y="0" width="2" height="30" />
		<rect x="70" y="0" width="2" height="30" />
		<rect x="76" y="0" width="4" height="30" />
		<rect x="82" y="0" width="4" height="30" />
		<rect x="88" y="0" width="2" height="30" />
		<rect x="94" y="0" width="2" height="30" />
		<rect x="98" y="0" width="2" height="30" />
		<rect x="102" y="0" width="2" height="30" />
		<rect x="106" y="0" width="2" height="30" />
		<rect x="112" y="0" width="2" height="30" />
		<rect x="116" y="0" width="4" height="30" />
		<rect x="122" y="0" width="2" height="30" />
		<rect x="126" y="0" width="2" height="30" />
		<rect x="132" y="0" width="2" height="30" />
		<rect x="136" y="0" width="4" height="30" />
		<rect x="142" y="0" width="2" height="30" />
		<rect x="146" y="0" width="4" height="30" />
		<rect x="152" y="0" width="2" height="30" />
		<rect x="158" y="0" width="2" height="30" />
		<rect x="162" y="0" width="2" height="30" />
		<rect x="168" y="0" width="2" height="30" />
		<rect x="172" y="0" width="2" height="30" />
		<rect x="176" y="0" width="4" height="30" />
		<rect x="182" y="0" width="2" height="30" />
		<rect x="188" y="0" width="2" height="30" />
		<rect x="192" y="0" width="2" height="30" />
		<rect x="196" y="0" width="4" height="30" />
		<rect x="202" y="0" width="2" height="30" />
		<rect x="206" y="0" width="2" height="30" />
		<rect x="210" y="0" width="4" height="30" />
		<rect x="218" y="0" width="2" height="30" />
		<rect x="222" y="0" width="4" height="30" />
		<rect x="228" y="0" width="2" height="30" />
		<rect x="234" y="0" width="2" height="30" />
		<rect x="238" y="0" width="2" height="30" />
		<rect x="242" y="0" width="2" height="30" />
		<rect x="246" y="0" width="2" height="30" />
		<rect x="250" y="0" width="2" height="30" />
		<rect x="256" y="0" width="4" height="30" />
		<rect x="262" y="0" width="2" height="30" />
		<rect x="266" y="0" width="4" height="30" />
		<rect x="274" y="0" width="2" height="30" />
		<rect x="280" y="0" width="2" height="30" />
	</g>
</svg>
